<svg width="50" height="50" viewBox="0 0 50 50" fill="none" xmlns="http://www.w3.org/2000/svg">
<rect width="50" height="50" rx="8" fill="#047857"/>
<g clip-path="url(#clip0_12205_25407)">
<path d="M32.992 30.5002C31.4399 30.5027 29.9027 30.2061 28.4692 29.6278C27.0357 29.0494 25.7344 28.2007 24.6404 27.1306C22.9164 25.4609 20.5819 24.5233 18.1481 24.5233C15.7143 24.5233 13.3798 25.4609 11.6558 27.1306L11.432 27.3482L8.5061 24.4984L8.72998 24.2808C11.2305 21.8568 14.618 20.4956 18.1497 20.4956C21.6813 20.4956 25.0688 21.8568 27.5693 24.2808C28.2816 24.9749 29.1278 25.5256 30.0593 25.9013C30.9909 26.2771 31.9896 26.4705 32.9982 26.4705C34.0068 26.4705 35.0055 26.2771 35.9371 25.9013C36.8687 25.5256 37.7148 24.9749 38.4271 24.2808L38.6509 24.0632L41.5799 26.907L41.3592 27.1246C40.2637 28.1974 38.9601 29.0482 37.5238 29.6277C36.0875 30.2071 34.5471 30.5037 32.992 30.5002Z" fill="white"/>
</g>
<defs>
<clipPath id="clip0_12205_25407">
<rect width="33.0769" height="10" fill="white" transform="translate(8.5 20.5)"/>
</clipPath>
</defs>
</svg>
