<svg width="250" height="46" viewBox="0 0 250 46" fill="none" xmlns="http://www.w3.org/2000/svg">
<g clip-path="url(#clip0_419_21974)">
<path d="M120.356 23.2916C120.356 18.4349 119.213 14.606 116.958 11.8556C114.703 9.10512 111.435 7.66113 107.375 7.66113C103.314 7.66113 99.9233 9.10874 97.4262 12.0039C95.0702 14.7291 93.876 18.1961 93.876 22.3036C93.876 26.556 94.9617 30.0013 97.1005 32.5563C99.4601 35.3465 102.92 36.7616 107.375 36.7616C110.882 36.7616 113.759 35.8604 115.93 34.0763C117.772 32.5454 119.187 30.327 120.088 27.4824L120.349 26.6682H115.322L115.203 27.1531C114.83 28.8199 113.842 30.2851 112.438 31.2571C110.942 32.2603 109.172 32.7737 107.371 32.7264C104.548 32.7264 102.41 31.8578 100.857 30.0592C99.4999 28.4958 98.7616 26.4402 98.6639 23.9069H120.36L120.356 23.2916ZM107.375 11.6891C110.01 11.6891 112.004 12.5649 113.491 14.3563C114.743 15.8582 115.424 17.8016 115.529 20.1286H98.7435C99.0526 18.0216 99.9367 16.0405 101.299 14.4033C102.039 13.5196 102.971 12.816 104.024 12.3458C105.077 11.8755 106.223 11.6509 107.375 11.6891Z" fill="#3B82F6"/>
<path d="M133.815 12.3842H140V7.82791H133.486V4.80242C133.486 0 128.781 0 128.781 0V7.82791H124.25V12.3842H128.767V25.8252C128.767 29.1439 129.852 31.8328 131.988 33.8196C134.123 35.8065 136.71 36.7691 139.986 36.7691V32.3069C137.727 32.3069 136.059 31.5831 134.868 30.0486C133.913 28.7914 133.42 27.2439 133.471 25.666V12.3842H133.815Z" fill="#3B82F6"/>
<path d="M77.7387 12.1271C79.997 12.1271 81.6762 12.8509 82.8705 14.3854C83.8194 15.6437 84.3086 17.1892 84.2565 18.7644V31.9665C84.2565 36.7689 88.9612 36.7689 88.9612 36.7689V18.6051C88.9612 15.348 87.9045 12.6627 85.8236 10.6433C83.6847 8.63114 81.0465 7.65039 77.7387 7.65039C74.4309 7.65039 71.8506 8.61305 69.7407 10.6035C67.6308 12.594 66.5198 15.2756 66.5198 18.5943V36.7689H71.2245V18.7644C71.1722 17.1857 71.6669 15.6375 72.625 14.3817C73.8048 12.8654 75.4804 12.1271 77.7387 12.1271Z" fill="#3B82F6"/>
<path d="M208.91 12.1271C211.172 12.1271 212.847 12.8509 214.045 14.3854C214.993 15.6445 215.482 17.1894 215.431 18.7644V31.9665C215.431 36.7689 220.136 36.7689 220.136 36.7689V18.6051C220.136 15.348 219.076 12.6627 216.995 10.6433C214.856 8.63114 212.218 7.65039 208.91 7.65039C205.602 7.65039 203.022 8.61305 200.912 10.6035C198.802 12.594 197.691 15.2756 197.691 18.5943V36.7689H202.396V18.7644C202.344 17.1864 202.838 15.6389 203.793 14.3817C204.98 12.8654 206.652 12.1271 208.91 12.1271Z" fill="#3B82F6"/>
<path d="M165.46 10.6544C163.321 8.64219 160.69 7.66144 157.382 7.66144C154.827 7.66144 152.678 8.25858 150.868 9.47094V0H146.163V36.8089H150.868V18.7646C150.817 17.1866 151.31 15.6391 152.265 14.3819C153.456 12.8656 155.128 12.1273 157.39 12.1273C159.651 12.1273 161.323 12.8511 162.518 14.3856C163.467 15.6439 163.956 17.1894 163.904 18.7646V32.0101C163.904 36.8089 168.608 36.8089 168.608 36.8089V18.6053C168.605 15.3337 167.544 12.6665 165.46 10.6544Z" fill="#3B82F6"/>
<path d="M174.924 0V32.0101C174.924 36.8089 179.629 36.8089 179.629 36.8089V0H174.924Z" fill="#3B82F6"/>
<path d="M238.658 19.8466L249.229 10.1549H243.352L231.185 21.8081V0H226.48V32.0101C226.48 36.8089 231.185 36.8089 231.185 36.8089V26.7047L235.307 22.8902L244.434 36.8089H250L238.658 19.8466Z" fill="#3B82F6"/>
<path d="M191.09 8.85156V36.8084H186.494V8.85156H191.09Z" fill="#3B82F6"/>
<path d="M188.777 5.81581C190.104 5.81581 191.18 4.73994 191.18 3.41279C191.18 2.08564 190.104 1.00977 188.777 1.00977C187.45 1.00977 186.374 2.08564 186.374 3.41279C186.374 4.73994 187.45 5.81581 188.777 5.81581Z" fill="#3B82F6"/>
<path d="M8.00413 15.5147C9.90049 13.6147 11.9308 12.8222 14.2143 13.0972C16.07 13.3649 17.7785 14.2587 19.0566 15.6305L30.1488 26.7047C34.184 30.7399 38.136 26.7879 38.136 26.7879L22.8746 11.5266C20.1278 8.77974 16.9937 7.42623 13.5593 7.48413C10.0706 7.58908 7.04509 8.9824 4.25122 11.7618C1.45734 14.5412 0.114692 17.5196 0.006122 20.9649C-0.102448 24.4102 1.23297 27.595 4.0196 30.3997L19.281 45.661L23.2293 41.7127L8.10184 26.5853C6.72889 25.3 5.84388 23.5785 5.59749 21.7141C5.31883 19.4377 6.10777 17.4111 8.00413 15.5147ZM41.8527 34.4964C39.9527 36.3928 37.9225 37.1853 35.6425 36.9103C33.7885 36.6521 32.0792 35.7656 30.8003 34.3987L19.7044 23.3028C15.6692 19.2712 11.7172 23.2232 11.7172 23.2232L26.9786 38.4846C29.729 41.2314 32.8595 42.5849 36.2939 42.527C39.7863 42.422 42.8081 41.0251 45.602 38.2457C48.3959 35.4663 49.7385 32.4915 49.8399 29.0462C49.9412 25.6009 48.6203 22.4162 45.8336 19.6368L30.5723 4.36816L26.6239 8.32374L41.755 23.4512C43.1227 24.7326 44.006 26.4468 44.2557 28.3043C44.5199 30.5734 43.7491 32.6 41.8527 34.4964Z" fill="#3B82F6"/>
</g>
<defs>
<clipPath id="clip0_419_21974">
<rect width="250" height="45.6615" fill="white"/>
</clipPath>
</defs>
</svg>
