<svg width="25" height="25" viewBox="0 0 25 25" fill="none" xmlns="http://www.w3.org/2000/svg">
<rect x="0.5" y="0.5" width="24" height="24" rx="4" fill="#9CC8E6"/>
<g clip-path="url(#clip0_621_6573)">
<path d="M7.05045 9.51853C7.6547 8.91314 8.30163 8.66058 9.02928 8.74823C9.62058 8.83351 10.165 9.11834 10.5722 9.55544L14.1067 13.0841C15.3924 14.3699 16.6517 13.1106 16.6517 13.1106L11.7888 8.24776C10.9136 7.3725 9.91491 6.94007 8.82056 6.95967C7.70891 6.99311 6.74487 7.43708 5.85462 8.32272C4.96438 9.20833 4.53656 10.1562 4.50196 11.2541C4.46737 12.3519 4.89058 13.3678 5.77851 14.2523L10.6437 19.1129L11.9018 17.8559L7.0816 13.0357C6.64506 12.6273 6.36313 12.0806 6.2836 11.4882C6.19481 10.7686 6.44619 10.1182 7.05045 9.51853ZM17.836 15.5669C17.2306 16.1711 16.5837 16.4237 15.8572 16.336C15.2667 16.2544 14.7221 15.9728 14.3142 15.5381L10.7786 12.0002C9.49286 10.7155 8.2336 11.9748 8.2336 11.9748L13.0965 16.8365C13.9729 17.7129 14.9704 18.1442 16.0647 18.1258C17.1775 18.0923 18.1404 17.6472 19.0307 16.7616C19.9209 15.8759 20.3488 14.928 20.381 13.8302C20.4133 12.7324 19.9924 11.7176 19.1045 10.832L14.2416 5.9668L12.9835 7.2249L17.8049 12.0451C18.2407 12.4534 18.5221 12.9997 18.6017 13.5915C18.6859 14.3169 18.4403 14.9615 17.836 15.5669Z" fill="#111827"/>
</g>
<defs>
<clipPath id="clip0_621_6573">
<rect width="16" height="16" fill="white" transform="translate(4.5 4.5)"/>
</clipPath>
</defs>
</svg>
